<?xml version="1.0" encoding="UTF-8" standalone="no"?><svg xmlns="http://www.w3.org/2000/svg" xmlns:xlink="http://www.w3.org/1999/xlink" clip-rule="evenodd" stroke-miterlimit="10" viewBox="0 0 1024 768"><desc>SVG generated by Keynote</desc><defs></defs><g transform="matrix(1.00, 0.00, -0.00, -1.00, 0.0, 768.0)"><path d="M 0.0 768.0 L 1024.0 768.0 L 1024.0 0.0 L 0.0 0.0 Z M 0.0 768.0 " fill="#FEFFFF"></path><g><clipPath id="clip0x7f906fc13680"><path d="M 127.0 718.0 L 897.0 718.0 L 897.0 252.0 L 127.0 252.0 Z M 126.5 718.0 "></path></clipPath><g clip-path="url(#clip0x7f906fc13680)"><image xlink:href="D4EDFD9EAB1CBC09EC1C013DA45B80BC.jpeg" width="768.00" height="1024.00" transform="matrix(1.00, 0.00, -0.00, -1.00, 127.0, 1218.0)"></image></g></g><text xml:space="preserve" font-family="Helvetica-Light,Helvetica" font-size="58.4" fill="#000000" transform="matrix(1.00, 0.00, -0.00, -1.00, 106.4, 144.4)">M</text><text xml:space="preserve" font-family="Helvetica-Light,Helvetica" font-size="58.4" fill="#000000" transform="matrix(1.00, 0.00, -0.00, -1.00, 155.0, 144.4)">o</text><text xml:space="preserve" font-family="Helvetica-Light,Helvetica" font-size="58.4" fill="#000000" transform="matrix(1.00, 0.00, -0.00, -1.00, 187.5, 144.4)">s</text><text xml:space="preserve" font-family="Helvetica-Light,Helvetica" font-size="58.4" fill="#000000" transform="matrix(1.00, 0.00, -0.00, -1.00, 216.7, 144.4)">t</text><text xml:space="preserve" font-family="Helvetica-Light,Helvetica" font-size="58.4" fill="#000000" transform="matrix(1.00, 0.00, -0.00, -1.00, 232.9, 144.4)"> </text><text xml:space="preserve" font-family="Helvetica-Light,Helvetica" font-size="58.4" fill="#000000" transform="matrix(1.00, 0.00, -0.00, -1.00, 249.2, 144.4)">l</text><text xml:space="preserve" font-family="Helvetica-Light,Helvetica" font-size="58.4" fill="#000000" transform="matrix(1.00, 0.00, -0.00, -1.00, 262.1, 144.4)">i</text><text xml:space="preserve" font-family="Helvetica-Light,Helvetica" font-size="58.4" fill="#000000" transform="matrix(1.00, 0.00, -0.00, -1.00, 275.1, 144.4)">k</text><text xml:space="preserve" font-family="Helvetica-Light,Helvetica" font-size="58.4" fill="#000000" transform="matrix(1.00, 0.00, -0.00, -1.00, 304.3, 144.4)">e</text><text xml:space="preserve" font-family="Helvetica-Light,Helvetica" font-size="58.4" fill="#000000" transform="matrix(1.00, 0.00, -0.00, -1.00, 336.8, 144.4)">l</text><text xml:space="preserve" font-family="Helvetica-Light,Helvetica" font-size="58.4" fill="#000000" transform="matrix(1.00, 0.00, -0.00, -1.00, 349.7, 144.4)">y</text><text xml:space="preserve" font-family="Helvetica-Light,Helvetica" font-size="58.4" fill="#000000" transform="matrix(1.00, 0.00, -0.00, -1.00, 378.9, 144.4)"> </text><text xml:space="preserve" font-family="Helvetica-Light,Helvetica" font-size="58.4" fill="#000000" transform="matrix(1.00, 0.00, -0.00, -1.00, 395.2, 144.4)">l</text><text xml:space="preserve" font-family="Helvetica-Light,Helvetica" font-size="58.4" fill="#000000" transform="matrix(1.00, 0.00, -0.00, -1.00, 408.1, 144.4)">o</text><text xml:space="preserve" font-family="Helvetica-Light,Helvetica" font-size="58.4" fill="#000000" transform="matrix(1.00, 0.00, -0.00, -1.00, 440.6, 144.4)">o</text><text xml:space="preserve" font-family="Helvetica-Light,Helvetica" font-size="58.4" fill="#000000" transform="matrix(1.00, 0.00, -0.00, -1.00, 473.1, 144.4)">s</text><text xml:space="preserve" font-family="Helvetica-Light,Helvetica" font-size="58.4" fill="#000000" transform="matrix(1.00, 0.00, -0.00, -1.00, 502.3, 144.4)">e</text><text xml:space="preserve" font-family="Helvetica-Light,Helvetica" font-size="58.4" fill="#000000" transform="matrix(1.00, 0.00, -0.00, -1.00, 534.7, 144.4)"> </text><text xml:space="preserve" font-family="Helvetica-Light,Helvetica" font-size="58.4" fill="#000000" transform="matrix(1.00, 0.00, -0.00, -1.00, 551.0, 144.4)">i</text><text xml:space="preserve" font-family="Helvetica-Light,Helvetica" font-size="58.4" fill="#000000" transform="matrix(1.00, 0.00, -0.00, -1.00, 563.9, 144.4)">t</text><text xml:space="preserve" font-family="Helvetica-Light,Helvetica" font-size="58.4" fill="#000000" transform="matrix(1.00, 0.00, -0.00, -1.00, 580.2, 144.4)"> </text><text xml:space="preserve" font-family="Helvetica-Light,Helvetica" font-size="58.4" fill="#000000" transform="matrix(1.00, 0.00, -0.00, -1.00, 596.4, 144.4)">a</text><text xml:space="preserve" font-family="Helvetica-Light,Helvetica" font-size="58.4" fill="#000000" transform="matrix(1.00, 0.00, -0.00, -1.00, 628.9, 144.4)">l</text><text xml:space="preserve" font-family="Helvetica-Light,Helvetica" font-size="58.4" fill="#000000" transform="matrix(1.00, 0.00, -0.00, -1.00, 641.9, 144.4)">l</text><text xml:space="preserve" font-family="Helvetica-Light,Helvetica" font-size="58.4" fill="#000000" transform="matrix(1.00, 0.00, -0.00, -1.00, 654.8, 144.4)"> </text><text xml:space="preserve" font-family="Helvetica-Light,Helvetica" font-size="58.4" fill="#000000" transform="matrix(1.00, 0.00, -0.00, -1.00, 671.1, 144.4)">g</text><text xml:space="preserve" font-family="Helvetica-Light,Helvetica" font-size="58.4" fill="#000000" transform="matrix(1.00, 0.00, -0.00, -1.00, 706.7, 144.4)">a</text><text xml:space="preserve" font-family="Helvetica-Light,Helvetica" font-size="58.4" fill="#000000" transform="matrix(1.00, 0.00, -0.00, -1.00, 739.2, 144.4)">m</text><text xml:space="preserve" font-family="Helvetica-Light,Helvetica" font-size="58.4" fill="#000000" transform="matrix(1.00, 0.00, -0.00, -1.00, 787.9, 144.4)">b</text><text xml:space="preserve" font-family="Helvetica-Light,Helvetica" font-size="58.4" fill="#000000" transform="matrix(1.00, 0.00, -0.00, -1.00, 823.5, 144.4)">l</text><text xml:space="preserve" font-family="Helvetica-Light,Helvetica" font-size="58.4" fill="#000000" transform="matrix(1.00, 0.00, -0.00, -1.00, 836.5, 144.4)">i</text><text xml:space="preserve" font-family="Helvetica-Light,Helvetica" font-size="58.4" fill="#000000" transform="matrix(1.00, 0.00, -0.00, -1.00, 849.5, 144.4)">n</text><text xml:space="preserve" font-family="Helvetica-Light,Helvetica" font-size="58.4" fill="#000000" transform="matrix(1.00, 0.00, -0.00, -1.00, 881.9, 144.4)">g</text><text xml:space="preserve" font-family="Helvetica-Light,Helvetica" font-size="32.0" fill="#000000" transform="matrix(1.00, 0.00, -0.00, -1.00, 400.9, 88.4)">f</text><text xml:space="preserve" font-family="Helvetica-Light,Helvetica" font-size="32.0" fill="#000000" transform="matrix(1.00, 0.00, -0.00, -1.00, 409.8, 88.4)">o</text><text xml:space="preserve" font-family="Helvetica-Light,Helvetica" font-size="32.0" fill="#000000" transform="matrix(1.00, 0.00, -0.00, -1.00, 427.6, 88.4)">r</text><text xml:space="preserve" font-family="Helvetica-Light,Helvetica" font-size="32.0" fill="#000000" transform="matrix(1.00, 0.00, -0.00, -1.00, 438.2, 88.4)"> </text><text xml:space="preserve" font-family="Helvetica-Light,Helvetica" font-size="32.0" fill="#000000" transform="matrix(1.00, 0.00, -0.00, -1.00, 447.1, 88.4)">l</text><text xml:space="preserve" font-family="Helvetica-Light,Helvetica" font-size="32.0" fill="#000000" transform="matrix(1.00, 0.00, -0.00, -1.00, 454.2, 88.4)">o</text><text xml:space="preserve" font-family="Helvetica-Light,Helvetica" font-size="32.0" fill="#000000" transform="matrix(1.00, 0.00, -0.00, -1.00, 472.0, 88.4)">v</text><text xml:space="preserve" font-family="Helvetica-Light,Helvetica" font-size="32.0" fill="#000000" transform="matrix(1.00, 0.00, -0.00, -1.00, 488.0, 88.4)">i</text><text xml:space="preserve" font-family="Helvetica-Light,Helvetica" font-size="32.0" fill="#000000" transform="matrix(1.00, 0.00, -0.00, -1.00, 495.1, 88.4)">n</text><text xml:space="preserve" font-family="Helvetica-Light,Helvetica" font-size="32.0" fill="#000000" transform="matrix(1.00, 0.00, -0.00, -1.00, 512.9, 88.4)">g</text><text xml:space="preserve" font-family="Helvetica-Light,Helvetica" font-size="32.0" fill="#000000" transform="matrix(1.00, 0.00, -0.00, -1.00, 532.4, 88.4)"> </text><text xml:space="preserve" font-family="Helvetica-Light,Helvetica" font-size="32.0" fill="#000000" transform="matrix(1.00, 0.00, -0.00, -1.00, 541.3, 88.4)">p</text><text xml:space="preserve" font-family="Helvetica-Light,Helvetica" font-size="32.0" fill="#000000" transform="matrix(1.00, 0.00, -0.00, -1.00, 560.9, 88.4)">o</text><text xml:space="preserve" font-family="Helvetica-Light,Helvetica" font-size="32.0" fill="#000000" transform="matrix(1.00, 0.00, -0.00, -1.00, 578.7, 88.4)">k</text><text xml:space="preserve" font-family="Helvetica-Light,Helvetica" font-size="32.0" fill="#000000" transform="matrix(1.00, 0.00, -0.00, -1.00, 594.7, 88.4)">e</text><text xml:space="preserve" font-family="Helvetica-Light,Helvetica" font-size="32.0" fill="#000000" transform="matrix(1.00, 0.00, -0.00, -1.00, 612.5, 88.4)">r</text></g></svg>