<?xml version="1.0" encoding="UTF-8" standalone="no"?><svg xmlns="http://www.w3.org/2000/svg" xmlns:xlink="http://www.w3.org/1999/xlink" clip-rule="evenodd" stroke-miterlimit="10" viewBox="0 0 1024 768"><desc>SVG generated by Keynote</desc><defs></defs><g transform="matrix(1.00, 0.00, -0.00, -1.00, 0.0, 768.0)"><path d="M 0.0 768.0 L 1024.0 768.0 L 1024.0 0.0 L 0.0 0.0 Z M 0.0 768.0 " fill="#FEFFFE"></path><g><clipPath id="clip0x7f906fc81200"><path d="M 58.0 627.0 L 339.0 627.0 L 339.0 141.0 L 58.0 141.0 Z M 58.2 626.7 "></path></clipPath><g clip-path="url(#clip0x7f906fc81200)"><image xlink:href="../../D6D6112C-2622-45A1-B0FC-C7AE93D0435D/assets/56C0F9C969D572774DB4D413C3144D4B.jpeg" width="4096.00" height="2731.00" transform="matrix(0.18, 0.00, -0.00, -0.18, -165.0, 627.0)"></image></g></g><g><clipPath id="clip0x7f906fbfa6a0"><path d="M 372.0 627.0 L 652.0 627.0 L 652.0 141.0 L 372.0 141.0 Z M 371.6 626.7 "></path></clipPath><g clip-path="url(#clip0x7f906fbfa6a0)"><image xlink:href="../../152C3D8B-7BF3-4F3C-8FF7-18CB8ACEB6AB/assets/78C662437E5E1D140CF6671A4BB565D8.jpeg" width="4096.00" height="2731.00" transform="matrix(0.18, 0.00, -0.00, -0.18, 20.0, 627.0)"></image></g></g><g><clipPath id="clip0x7f906fd022b0"><path d="M 685.0 627.0 L 966.0 627.0 L 966.0 141.0 L 685.0 141.0 Z M 685.0 626.7 "></path></clipPath><g clip-path="url(#clip0x7f906fd022b0)"><image xlink:href="../../45D36621-484C-4026-80EC-FDBD73C2A2AB/assets/975B350FBAB4F2E4D883F0EC49A6B33F.jpeg" width="4096.00" height="2731.00" transform="matrix(0.18, 0.00, -0.00, -0.18, 461.0, 627.0)"></image></g></g></g></svg>