<?xml version="1.0" encoding="UTF-8" standalone="no"?><svg xmlns="http://www.w3.org/2000/svg" xmlns:xlink="http://www.w3.org/1999/xlink" clip-rule="evenodd" stroke-miterlimit="10" viewBox="0 0 1024 768"><desc>SVG generated by Keynote</desc><defs></defs><g transform="matrix(1.00, 0.00, -0.00, -1.00, 0.0, 768.0)"><path d="M 0.0 768.0 L 1024.0 768.0 L 1024.0 0.0 L 0.0 0.0 Z M 0.0 768.0 " fill="#FEFFFE"></path><g><clipPath id="clip0x7f906f86e0f0"><path d="M 58.0 627.0 L 339.0 627.0 L 339.0 141.0 L 58.0 141.0 Z M 58.2 626.7 "></path></clipPath><g clip-path="url(#clip0x7f906f86e0f0)"><image xlink:href="78C662437E5E1D140CF6671A4BB565D8.jpeg" width="4096.00" height="2731.00" transform="matrix(0.18, 0.00, -0.00, -0.18, -291.0, 634.0)"></image></g></g><g><clipPath id="clip0x7f906f5dcfa0"><path d="M 372.0 627.0 L 652.0 627.0 L 652.0 141.0 L 372.0 141.0 Z M 371.6 626.7 "></path></clipPath><g clip-path="url(#clip0x7f906f5dcfa0)"><image xlink:href="548F26DCC7E242A9A36A82CD29BA0155.jpeg" width="4096.00" height="2731.00" transform="matrix(0.24, 0.00, -0.00, -0.24, -97.0, 787.0)"></image></g></g><g><clipPath id="clip0x7f906f86f810"><path d="M 685.0 627.0 L 966.0 627.0 L 966.0 141.0 L 685.0 141.0 Z M 685.0 626.7 "></path></clipPath><g clip-path="url(#clip0x7f906f86f810)"><image xlink:href="7CBD62F7207A820CB4CCB10E8D4CCD57.jpeg" width="256.00" height="256.00" transform="matrix(3.57, 0.00, -0.00, -3.57, 368.0, 792.0)"></image></g></g></g></svg>