<?xml version="1.0" encoding="UTF-8" standalone="no"?><svg xmlns="http://www.w3.org/2000/svg" xmlns:xlink="http://www.w3.org/1999/xlink" clip-rule="evenodd" stroke-miterlimit="10" viewBox="0 0 1024 768"><desc>SVG generated by Keynote</desc><defs></defs><g transform="matrix(1.00, 0.00, -0.00, -1.00, 0.0, 768.0)"><path d="M 0.0 768.0 L 1024.0 768.0 L 1024.0 0.0 L 0.0 0.0 Z M 0.0 768.0 " fill="#FEFFFF"></path><g><clipPath id="clip0x7f906fb3f340"><path d="M 127.0 718.0 L 897.0 718.0 L 897.0 252.0 L 127.0 252.0 Z M 126.5 718.0 "></path></clipPath><g clip-path="url(#clip0x7f906fb3f340)"><image xlink:href="../../69AC68CA-691D-4C56-B40D-BFD9D4E8EF07/assets/920C9502BE856C9D576F48D8B09E513A.jpeg" width="4096.00" height="2731.00" transform="matrix(0.55, 0.00, -0.00, -0.55, -407.0, 993.0)"></image></g></g><text xml:space="preserve" font-family="Helvetica-Light,Helvetica" font-size="79.2" fill="#000000" transform="matrix(1.00, 0.00, -0.00, -1.00, 104.1, 149.2)">C</text><text xml:space="preserve" font-family="Helvetica-Light,Helvetica" font-size="79.2" fill="#000000" transform="matrix(1.00, 0.00, -0.00, -1.00, 161.3, 149.2)">r</text><text xml:space="preserve" font-family="Helvetica-Light,Helvetica" font-size="79.2" fill="#000000" transform="matrix(1.00, 0.00, -0.00, -1.00, 187.7, 149.2)">a</text><text xml:space="preserve" font-family="Helvetica-Light,Helvetica" font-size="79.2" fill="#000000" transform="matrix(1.00, 0.00, -0.00, -1.00, 231.7, 149.2)">d</text><text xml:space="preserve" font-family="Helvetica-Light,Helvetica" font-size="79.2" fill="#000000" transform="matrix(1.00, 0.00, -0.00, -1.00, 280.1, 149.2)">l</text><text xml:space="preserve" font-family="Helvetica-Light,Helvetica" font-size="79.2" fill="#000000" transform="matrix(1.00, 0.00, -0.00, -1.00, 297.7, 149.2)">e</text><text xml:space="preserve" font-family="Helvetica-Light,Helvetica" font-size="79.2" fill="#000000" transform="matrix(1.00, 0.00, -0.00, -1.00, 341.7, 149.2)"> </text><text xml:space="preserve" font-family="Helvetica-Light,Helvetica" font-size="79.2" fill="#000000" transform="matrix(1.00, 0.00, -0.00, -1.00, 363.7, 149.2)">s</text><text xml:space="preserve" font-family="Helvetica-Light,Helvetica" font-size="79.2" fill="#000000" transform="matrix(1.00, 0.00, -0.00, -1.00, 403.3, 149.2)">n</text><text xml:space="preserve" font-family="Helvetica-Light,Helvetica" font-size="79.2" fill="#000000" transform="matrix(1.00, 0.00, -0.00, -1.00, 447.4, 149.2)">a</text><text xml:space="preserve" font-family="Helvetica-Light,Helvetica" font-size="79.2" fill="#000000" transform="matrix(1.00, 0.00, -0.00, -1.00, 491.4, 149.2)">t</text><text xml:space="preserve" font-family="Helvetica-Light,Helvetica" font-size="79.2" fill="#000000" transform="matrix(1.00, 0.00, -0.00, -1.00, 513.4, 149.2)">c</text><text xml:space="preserve" font-family="Helvetica-Light,Helvetica" font-size="79.2" fill="#000000" transform="matrix(1.00, 0.00, -0.00, -1.00, 557.5, 149.2)">h</text><text xml:space="preserve" font-family="Helvetica-Light,Helvetica" font-size="79.2" fill="#000000" transform="matrix(1.00, 0.00, -0.00, -1.00, 601.5, 149.2)">e</text><text xml:space="preserve" font-family="Helvetica-Light,Helvetica" font-size="79.2" fill="#000000" transform="matrix(1.00, 0.00, -0.00, -1.00, 645.5, 149.2)">r</text><text xml:space="preserve" font-family="Helvetica-Light,Helvetica" font-size="79.2" fill="#000000" transform="matrix(1.00, 0.00, -0.00, -1.00, 671.9, 149.2)"> </text><text xml:space="preserve" font-family="Helvetica-Light,Helvetica" font-size="79.2" fill="#000000" transform="matrix(1.00, 0.00, -0.00, -1.00, 693.9, 149.2)">A</text><text xml:space="preserve" font-family="Helvetica-Light,Helvetica" font-size="79.2" fill="#000000" transform="matrix(1.00, 0.00, -0.00, -1.00, 745.3, 149.2)">w</text><text xml:space="preserve" font-family="Helvetica-Light,Helvetica" font-size="79.2" fill="#000000" transform="matrix(1.00, 0.00, -0.00, -1.00, 802.5, 149.2)">a</text><text xml:space="preserve" font-family="Helvetica-Light,Helvetica" font-size="79.2" fill="#000000" transform="matrix(1.00, 0.00, -0.00, -1.00, 846.5, 149.2)">r</text><text xml:space="preserve" font-family="Helvetica-Light,Helvetica" font-size="79.2" fill="#000000" transform="matrix(1.00, 0.00, -0.00, -1.00, 871.5, 149.2)">d</text><text xml:space="preserve" font-family="Helvetica-Light,Helvetica" font-size="32.0" fill="#000000" transform="matrix(1.00, 0.00, -0.00, -1.00, 250.3, 88.4)">f</text><text xml:space="preserve" font-family="Helvetica-Light,Helvetica" font-size="32.0" fill="#000000" transform="matrix(1.00, 0.00, -0.00, -1.00, 259.2, 88.4)">o</text><text xml:space="preserve" font-family="Helvetica-Light,Helvetica" font-size="32.0" fill="#000000" transform="matrix(1.00, 0.00, -0.00, -1.00, 277.0, 88.4)">r</text><text xml:space="preserve" font-family="Helvetica-Light,Helvetica" font-size="32.0" fill="#000000" transform="matrix(1.00, 0.00, -0.00, -1.00, 287.6, 88.4)"> </text><text xml:space="preserve" font-family="Helvetica-Light,Helvetica" font-size="32.0" fill="#000000" transform="matrix(1.00, 0.00, -0.00, -1.00, 296.5, 88.4)">C</text><text xml:space="preserve" font-family="Helvetica-Light,Helvetica" font-size="32.0" fill="#000000" transform="matrix(1.00, 0.00, -0.00, -1.00, 319.6, 88.4)">h</text><text xml:space="preserve" font-family="Helvetica-Light,Helvetica" font-size="32.0" fill="#000000" transform="matrix(1.00, 0.00, -0.00, -1.00, 337.4, 88.4)">e</text><text xml:space="preserve" font-family="Helvetica-Light,Helvetica" font-size="32.0" fill="#000000" transform="matrix(1.00, 0.00, -0.00, -1.00, 355.2, 88.4)">m</text><text xml:space="preserve" font-family="Helvetica-Light,Helvetica" font-size="32.0" fill="#000000" transform="matrix(1.00, 0.00, -0.00, -1.00, 381.9, 88.4)">i</text><text xml:space="preserve" font-family="Helvetica-Light,Helvetica" font-size="32.0" fill="#000000" transform="matrix(1.00, 0.00, -0.00, -1.00, 389.0, 88.4)">s</text><text xml:space="preserve" font-family="Helvetica-Light,Helvetica" font-size="32.0" fill="#000000" transform="matrix(1.00, 0.00, -0.00, -1.00, 405.0, 88.4)">t</text><text xml:space="preserve" font-family="Helvetica-Light,Helvetica" font-size="32.0" fill="#000000" transform="matrix(1.00, 0.00, -0.00, -1.00, 413.9, 88.4)">r</text><text xml:space="preserve" font-family="Helvetica-Light,Helvetica" font-size="32.0" fill="#000000" transform="matrix(1.00, 0.00, -0.00, -1.00, 425.1, 88.4)">y</text><text xml:space="preserve" font-family="Helvetica-Light,Helvetica" font-size="32.0" fill="#000000" transform="matrix(1.00, 0.00, -0.00, -1.00, 441.1, 88.4)"> </text><text xml:space="preserve" font-family="Helvetica-Light,Helvetica" font-size="32.0" fill="#000000" transform="matrix(1.00, 0.00, -0.00, -1.00, 450.0, 88.4)">w</text><text xml:space="preserve" font-family="Helvetica-Light,Helvetica" font-size="32.0" fill="#000000" transform="matrix(1.00, 0.00, -0.00, -1.00, 473.1, 88.4)">i</text><text xml:space="preserve" font-family="Helvetica-Light,Helvetica" font-size="32.0" fill="#000000" transform="matrix(1.00, 0.00, -0.00, -1.00, 480.2, 88.4)">t</text><text xml:space="preserve" font-family="Helvetica-Light,Helvetica" font-size="32.0" fill="#000000" transform="matrix(1.00, 0.00, -0.00, -1.00, 489.1, 88.4)">h</text><text xml:space="preserve" font-family="Helvetica-Light,Helvetica" font-size="32.0" fill="#000000" transform="matrix(1.00, 0.00, -0.00, -1.00, 506.9, 88.4)"> </text><text xml:space="preserve" font-family="Helvetica-Light,Helvetica" font-size="32.0" fill="#000000" transform="matrix(1.00, 0.00, -0.00, -1.00, 515.8, 88.4)">t</text><text xml:space="preserve" font-family="Helvetica-Light,Helvetica" font-size="32.0" fill="#000000" transform="matrix(1.00, 0.00, -0.00, -1.00, 524.7, 88.4)">h</text><text xml:space="preserve" font-family="Helvetica-Light,Helvetica" font-size="32.0" fill="#000000" transform="matrix(1.00, 0.00, -0.00, -1.00, 542.5, 88.4)">e</text><text xml:space="preserve" font-family="Helvetica-Light,Helvetica" font-size="32.0" fill="#000000" transform="matrix(1.00, 0.00, -0.00, -1.00, 560.3, 88.4)"> </text><text xml:space="preserve" font-family="Helvetica-Light,Helvetica" font-size="32.0" fill="#000000" transform="matrix(1.00, 0.00, -0.00, -1.00, 569.2, 88.4)">y</text><text xml:space="preserve" font-family="Helvetica-Light,Helvetica" font-size="32.0" fill="#000000" transform="matrix(1.00, 0.00, -0.00, -1.00, 585.2, 88.4)">o</text><text xml:space="preserve" font-family="Helvetica-Light,Helvetica" font-size="32.0" fill="#000000" transform="matrix(1.00, 0.00, -0.00, -1.00, 603.0, 88.4)">u</text><text xml:space="preserve" font-family="Helvetica-Light,Helvetica" font-size="32.0" fill="#000000" transform="matrix(1.00, 0.00, -0.00, -1.00, 620.8, 88.4)">n</text><text xml:space="preserve" font-family="Helvetica-Light,Helvetica" font-size="32.0" fill="#000000" transform="matrix(1.00, 0.00, -0.00, -1.00, 638.6, 88.4)">g</text><text xml:space="preserve" font-family="Helvetica-Light,Helvetica" font-size="32.0" fill="#000000" transform="matrix(1.00, 0.00, -0.00, -1.00, 658.1, 88.4)">e</text><text xml:space="preserve" font-family="Helvetica-Light,Helvetica" font-size="32.0" fill="#000000" transform="matrix(1.00, 0.00, -0.00, -1.00, 675.9, 88.4)">r</text><text xml:space="preserve" font-family="Helvetica-Light,Helvetica" font-size="32.0" fill="#000000" transform="matrix(1.00, 0.00, -0.00, -1.00, 686.6, 88.4)"> </text><text xml:space="preserve" font-family="Helvetica-Light,Helvetica" font-size="32.0" fill="#000000" transform="matrix(1.00, 0.00, -0.00, -1.00, 695.5, 88.4)">y</text><text xml:space="preserve" font-family="Helvetica-Light,Helvetica" font-size="32.0" fill="#000000" transform="matrix(1.00, 0.00, -0.00, -1.00, 711.5, 88.4)">e</text><text xml:space="preserve" font-family="Helvetica-Light,Helvetica" font-size="32.0" fill="#000000" transform="matrix(1.00, 0.00, -0.00, -1.00, 729.2, 88.4)">a</text><text xml:space="preserve" font-family="Helvetica-Light,Helvetica" font-size="32.0" fill="#000000" transform="matrix(1.00, 0.00, -0.00, -1.00, 747.0, 88.4)">r</text><text xml:space="preserve" font-family="Helvetica-Light,Helvetica" font-size="32.0" fill="#000000" transform="matrix(1.00, 0.00, -0.00, -1.00, 757.7, 88.4)">s</text></g></svg>