<?xml version="1.0" encoding="UTF-8" standalone="no"?><svg xmlns="http://www.w3.org/2000/svg" xmlns:xlink="http://www.w3.org/1999/xlink" clip-rule="evenodd" stroke-miterlimit="10" viewBox="0 0 1024 768"><desc>SVG generated by Keynote</desc><defs></defs><g transform="matrix(1.00, 0.00, -0.00, -1.00, 0.0, 768.0)"><path d="M 0.0 768.0 L 1024.0 768.0 L 1024.0 0.0 L 0.0 0.0 Z M 0.0 768.0 " fill="#FEFFFE"></path><g><clipPath id="clip0x7f906fc001f0"><path d="M 58.0 627.0 L 339.0 627.0 L 339.0 141.0 L 58.0 141.0 Z M 58.2 626.7 "></path></clipPath><g clip-path="url(#clip0x7f906fc001f0)"><image xlink:href="../../CF84A45A-F3A2-428D-821F-68ACCF754EAC/assets/91AC8567C073F655C575EC1F3CE66735.jpeg" width="4096.00" height="2731.00" transform="matrix(0.18, 0.00, -0.00, -0.18, -165.0, 627.0)"></image></g></g><g><clipPath id="clip0x7f906fb84fd0"><path d="M 372.0 627.0 L 652.0 627.0 L 652.0 141.0 L 372.0 141.0 Z M 371.6 626.7 "></path></clipPath><g clip-path="url(#clip0x7f906fb84fd0)"><image xlink:href="../../152C3D8B-7BF3-4F3C-8FF7-18CB8ACEB6AB/assets/78C662437E5E1D140CF6671A4BB565D8.jpeg" width="4096.00" height="2731.00" transform="matrix(0.18, 0.00, -0.00, -0.18, 20.0, 627.0)"></image></g></g><g><clipPath id="clip0x7f906fb87e00"><path d="M 685.0 627.0 L 966.0 627.0 L 966.0 141.0 L 685.0 141.0 Z M 685.0 626.7 "></path></clipPath><g clip-path="url(#clip0x7f906fb87e00)"><image xlink:href="../../CF84A45A-F3A2-428D-821F-68ACCF754EAC/assets/711080B87721D66B90E380C7BA83CF9A.jpeg" width="4096.00" height="2731.00" transform="matrix(0.18, 0.00, -0.00, -0.18, 395.0, 627.0)"></image></g></g></g></svg>