<?xml version="1.0" encoding="UTF-8" standalone="no"?><svg xmlns="http://www.w3.org/2000/svg" xmlns:xlink="http://www.w3.org/1999/xlink" clip-rule="evenodd" stroke-miterlimit="10" viewBox="0 0 1024 768"><desc>SVG generated by Keynote</desc><defs></defs><g transform="matrix(1.00, 0.00, -0.00, -1.00, 0.0, 768.0)"><path d="M 0.0 768.0 L 1024.0 768.0 L 1024.0 0.0 L 0.0 0.0 Z M 0.0 768.0 " fill="#FEFFFE"></path><g><clipPath id="clip0x7f906fc36480"><path d="M 58.0 627.0 L 339.0 627.0 L 339.0 141.0 L 58.0 141.0 Z M 58.2 626.7 "></path></clipPath><g clip-path="url(#clip0x7f906fc36480)"><image xlink:href="../../F9DFD214-3735-46AB-A8E9-41DBA24E2DEB/assets/913808C2880B74D87E0F1B8977F45122.jpeg" width="256.00" height="256.00" transform="matrix(1.89, 0.00, -0.00, -1.90, -44.0, 627.0)"></image></g></g><g><clipPath id="clip0x7f906fbba2b0"><path d="M 372.0 627.0 L 652.0 627.0 L 652.0 141.0 L 372.0 141.0 Z M 371.6 626.7 "></path></clipPath><g clip-path="url(#clip0x7f906fbba2b0)"><image xlink:href="../../152C3D8B-7BF3-4F3C-8FF7-18CB8ACEB6AB/assets/78C662437E5E1D140CF6671A4BB565D8.jpeg" width="4096.00" height="2731.00" transform="matrix(0.18, 0.00, -0.00, -0.18, 20.0, 627.0)"></image></g></g><g><clipPath id="clip0x7f906fbbced0"><path d="M 685.0 627.0 L 966.0 627.0 L 966.0 141.0 L 685.0 141.0 Z M 685.0 626.7 "></path></clipPath><g clip-path="url(#clip0x7f906fbbced0)"><image xlink:href="../../9B49CBBD-827B-4CED-AB62-ECB28E096030/assets/A1489DE3E4CEEA62227D3B3EC616BD5D.jpeg" width="4096.00" height="2731.00" transform="matrix(0.39, 0.00, -0.00, -0.39, 26.0, 878.0)"></image></g></g></g></svg>