<?xml version="1.0" encoding="UTF-8" standalone="no"?><svg xmlns="http://www.w3.org/2000/svg" xmlns:xlink="http://www.w3.org/1999/xlink" clip-rule="evenodd" stroke-miterlimit="10" viewBox="0 0 1024 768"><desc>SVG generated by Keynote</desc><defs></defs><g transform="matrix(1.00, 0.00, -0.00, -1.00, 0.0, 768.0)"><path d="M 0.0 768.0 L 1024.0 768.0 L 1024.0 0.0 L 0.0 0.0 Z M 0.0 768.0 " fill="#FEFFFE"></path><g><clipPath id="clip0x7f906f967910"><path d="M 58.0 627.0 L 339.0 627.0 L 339.0 141.0 L 58.0 141.0 Z M 58.2 626.7 "></path></clipPath><g clip-path="url(#clip0x7f906f967910)"><image xlink:href="../../152C3D8B-7BF3-4F3C-8FF7-18CB8ACEB6AB/assets/78C662437E5E1D140CF6671A4BB565D8.jpeg" width="4096.00" height="2731.00" transform="matrix(0.18, 0.00, -0.00, -0.18, -291.0, 634.0)"></image></g></g><g><clipPath id="clip0x7f906f8e0e20"><path d="M 372.0 627.0 L 652.0 627.0 L 652.0 141.0 L 372.0 141.0 Z M 371.6 626.7 "></path></clipPath><g clip-path="url(#clip0x7f906f8e0e20)"><image xlink:href="16636E6C92A73B95614E7F7D93446DD7.jpeg" width="4096.00" height="2731.00" transform="matrix(0.32, 0.00, -0.00, -0.32, -203.0, 735.0)"></image></g></g><g><clipPath id="clip0x7f906f8f9fa0"><path d="M 685.0 627.0 L 966.0 627.0 L 966.0 141.0 L 685.0 141.0 Z M 685.0 626.7 "></path></clipPath><g clip-path="url(#clip0x7f906f8f9fa0)"><image xlink:href="FBF4DFFCAA0C2730953C129F71F4AD42.jpeg" width="4096.00" height="2731.00" transform="matrix(0.18, 0.00, -0.00, -0.18, 489.0, 627.0)"></image></g></g></g></svg>